<svg id="SvgjsSvg1001" width="288" height="288" xmlns="http://www.w3.org/2000/svg" version="1.1" xmlns:xlink="http://www.w3.org/1999/xlink" xmlns:svgjs="http://svgjs.com/svgjs"><defs id="SvgjsDefs1002"></defs><g id="SvgjsG1008" transform="matrix(1,0,0,1,0,0)"><svg xmlns="http://www.w3.org/2000/svg" width="288" height="288" viewBox="0 0 128 128"><path d="m123.25 49.72c0-6.885-7.865-16.928-45.332-25.674a61.372 61.372 0 0 0 -27.836 0c-37.467 8.746-45.332 18.789-45.332 25.674 0 8.585 4.722 21.319 17.692 21.521v8.44a26.183 26.183 0 0 0 26.168 25.879h30.78a26.16 26.16 0 0 0 26.17-25.95v-8.369c12.967-.202 17.69-12.936 17.69-21.521zm-115 0c0-2.889 3.074-13.032 42.629-22.266a57.916 57.916 0 0 1 26.243 0c39.554 9.234 42.628 19.377 42.628 22.266 0 7.176-3.79 17.812-14.192 18.02v-2.127a4.756 4.756 0 0 0 -4.75-4.75h-73.616a4.756 4.756 0 0 0 -4.75 4.75v2.127c-10.402-.208-14.192-10.84-14.192-18.02zm17.692 29.893v-14a1.252 1.252 0 0 1 1.25-1.25h73.616a1.252 1.252 0 0 1 1.25 1.25v14a1.251 1.251 0 0 1 -1.25 1.25h-73.616a1.251 1.251 0 0 1 -1.25-1.25zm65.075 19.242a22.8 22.8 0 0 1 -11.627 3.2h-30.78a22.613 22.613 0 0 1 -6.026-.818 22.576 22.576 0 0 1 -16.084-16.944 4.689 4.689 0 0 0 .7.07h73.616a4.691 4.691 0 0 0 .7-.071 22.542 22.542 0 0 1 -10.5 14.563z" fill="#be1935" class="color000 svgShape"></path><path d="M97.264 39.6c1.738.658 3.373 1.33 4.858 2a1.75 1.75 0 001.436-3.192c-1.55-.7-3.251-1.4-5.056-2.08a1.75 1.75 0 00-1.238 3.272zM64 56.167a13.75 13.75 0 10-13.75-13.75 13.765 13.765 0 0013.75 13.75zm0-24a10.25 10.25 0 11-10.25 10.25 10.261 10.261 0 0110.25-10.25zM36.192 74.363h55.616a1.75 1.75 0 000-3.5h-55.616a1.75 1.75 0 000 3.5z" fill="#be1935" class="color000 svgShape"></path></svg></g></svg>